<?xml version="1.0" encoding="UTF-8" standalone="no"?>
<!-- Created with Inkscape (http://www.inkscape.org/) -->

<svg
   xmlns:dc="http://purl.org/dc/elements/1.1/"
   xmlns:cc="http://creativecommons.org/ns#"
   xmlns:rdf="http://www.w3.org/1999/02/22-rdf-syntax-ns#"
   xmlns:svg="http://www.w3.org/2000/svg"
   xmlns="http://www.w3.org/2000/svg"
   xmlns:xlink="http://www.w3.org/1999/xlink"
   xmlns:sodipodi="http://sodipodi.sourceforge.net/DTD/sodipodi-0.dtd"
   xmlns:inkscape="http://www.inkscape.org/namespaces/inkscape"
   version="1.0"
   width="500"
   height="499.99997"
   viewBox="-0.811 -0.732 1708 1708"
   id="svg11310"
   xml:space="preserve"
   inkscape:version="0.48.1 r9760"
   sodipodi:docname="Cadenas-ouvert-bleu.svg"><sodipodi:namedview
   pagecolor="#ffffff"
   bordercolor="#666666"
   borderopacity="1"
   objecttolerance="10"
   gridtolerance="10"
   guidetolerance="10"
   inkscape:pageopacity="0"
   inkscape:pageshadow="2"
   inkscape:window-width="1440"
   inkscape:window-height="900"
   id="namedview4015"
   showgrid="false"
   inkscape:zoom="0.68000004"
   inkscape:cx="0.30328546"
   inkscape:cy="204.28788"
   inkscape:window-x="0"
   inkscape:window-y="0"
   inkscape:window-maximized="0"
   inkscape:current-layer="svg11310" /><metadata
   id="metadata52"><rdf:RDF><cc:Work
       rdf:about=""><dc:format>image/svg+xml</dc:format><dc:type
         rdf:resource="http://purl.org/dc/dcmitype/StillImage" /><cc:license
         rdf:resource="http://creativecommons.org/licenses/by-sa/3.0/" /><dc:source>http://commons.wikimedia.org/wiki/Image:Crystal_Clear_action_exit.svg http://commons.wikimedia.org/wiki/Image:Crystal_Clear_action_lock1.png</dc:source><dc:title /><dc:date>20080613</dc:date><dc:creator><cc:Agent><dc:title>Jérôme Borme</dc:title></cc:Agent></dc:creator><dc:contributor><cc:Agent><dc:title>Everaldo Coelho, YellowIcon</dc:title></cc:Agent></dc:contributor></cc:Work><cc:License
       rdf:about="http://creativecommons.org/licenses/by-sa/3.0/"><cc:permits
         rdf:resource="http://creativecommons.org/ns#Reproduction" /><cc:permits
         rdf:resource="http://creativecommons.org/ns#Distribution" /><cc:requires
         rdf:resource="http://creativecommons.org/ns#Notice" /><cc:requires
         rdf:resource="http://creativecommons.org/ns#Attribution" /><cc:permits
         rdf:resource="http://creativecommons.org/ns#DerivativeWorks" /><cc:requires
         rdf:resource="http://creativecommons.org/ns#ShareAlike" /></cc:License></rdf:RDF></metadata>
<defs
   id="defs11312"><linearGradient
   id="linearGradient19837"><stop
     id="stop19839"
     style="stop-color:#004cb4;stop-opacity:1;"
     offset="0" /><stop
     id="stop19841"
     style="stop-color:#259ae9;stop-opacity:0;"
     offset="1" /></linearGradient><linearGradient
   id="linearGradient14977"><stop
     id="stop14979"
     style="stop-color:#ffffff;stop-opacity:0.47058824"
     offset="0" /><stop
     id="stop14981"
     style="stop-color:#ffffff;stop-opacity:0.70588237"
     offset="1" /></linearGradient><linearGradient
   id="linearGradient14071"><stop
     id="stop14073"
     style="stop-color:#ffffff;stop-opacity:1"
     offset="0" /><stop
     id="stop14075"
     style="stop-color:#ffffff;stop-opacity:0"
     offset="1" /></linearGradient><linearGradient
   id="linearGradient14012"><stop
     id="stop14014"
     style="stop-color:#0087dc;stop-opacity:1;"
     offset="0" /><stop
     id="stop14016"
     style="stop-color:#1b8dfa;stop-opacity:0.58823532;"
     offset="1" /></linearGradient><linearGradient
   id="linearGradient14004"><stop
     id="stop14006"
     style="stop-color:#ffffff;stop-opacity:1"
     offset="0" /><stop
     id="stop14008"
     style="stop-color:#ffffff;stop-opacity:0"
     offset="1" /></linearGradient>
<linearGradient
   x1="1531.1748"
   y1="-710.26196"
   x2="514.25446"
   y2="1775.3436"
   id="linearGradient14010"
   xlink:href="#linearGradient14004"
   gradientUnits="userSpaceOnUse"
   gradientTransform="matrix(0.995461,0,0,0.995461,3.833802,3.912899)" /><linearGradient
   x1="1026.7279"
   y1="1147.7113"
   x2="1703.623"
   y2="1703.6219"
   id="linearGradient14022"
   xlink:href="#linearGradient14012"
   gradientUnits="userSpaceOnUse"
   gradientTransform="matrix(0.995461,0,0,0.995461,3.833802,3.912899)" /><linearGradient
   x1="853.22852"
   y1="6994.7397"
   x2="853.22852"
   y2="-1149.4908"
   id="linearGradient14077"
   xlink:href="#linearGradient14071"
   gradientUnits="userSpaceOnUse" /><linearGradient
   x1="1678.5588"
   y1="288.91214"
   x2="1678.5588"
   y2="1417.6237"
   id="linearGradient19843"
   xlink:href="#linearGradient19837"
   gradientUnits="userSpaceOnUse" /><linearGradient
   inkscape:collect="always"
   xlink:href="#linearGradient19837"
   id="linearGradient4026"
   gradientUnits="userSpaceOnUse"
   x1="1678.5588"
   y1="288.91214"
   x2="1678.5588"
   y2="1417.6237"
   gradientTransform="translate(-5.210447e-5,4.612732e-5)" /><linearGradient
   inkscape:collect="always"
   xlink:href="#linearGradient14004"
   id="linearGradient4041"
   gradientUnits="userSpaceOnUse"
   gradientTransform="matrix(0.995461,0,0,0.995461,3.8337499,3.9129451)"
   x1="1531.1748"
   y1="-710.26196"
   x2="514.25446"
   y2="1775.3436" /><linearGradient
   inkscape:collect="always"
   xlink:href="#linearGradient14012"
   id="linearGradient4044"
   gradientUnits="userSpaceOnUse"
   gradientTransform="matrix(0.995461,0,0,0.995461,3.8337499,3.9129451)"
   x1="1026.7279"
   y1="1147.7113"
   x2="1703.623"
   y2="1703.6219" /></defs>
















<path
   inkscape:connector-curvature="0"
   style="fill:none;stroke:#e83131;stroke-width:10.2480011;stroke-linecap:round;stroke-linejoin:round;stroke-miterlimit:100;stroke-opacity:0.66666667;stroke-dasharray:none"
   id="path17680"
   d="m 1417.5447,1699.8019 c 155.8422,0 282.178,-126.3348 282.178,-282.1782" /><path
   inkscape:connector-curvature="0"
   style="fill:none;stroke:#e83131;stroke-width:10.2480011;stroke-linecap:round;stroke-linejoin:round;stroke-miterlimit:100;stroke-opacity:0.66666667;stroke-dasharray:none"
   id="path17682"
   d="m 6.6548998,1417.6237 c 0,155.8434 126.3358602,282.1782 282.1781602,282.1782" /><line
   stroke-miterlimit="500"
   x1="288.8331"
   y1="1699.802"
   x2="1417.5448"
   y2="1699.802"
   id="line17684"
   style="fill:none;stroke:#e83131;stroke-width:10.2480011;stroke-linecap:round;stroke-linejoin:round;stroke-miterlimit:100;stroke-opacity:0.66666667;stroke-dasharray:none" /><line
   stroke-miterlimit="500"
   x1="6.654902"
   y1="288.9122"
   x2="6.654902"
   y2="1417.6238"
   id="line17690"
   style="fill:none;stroke:#e83131;stroke-width:10.2480011;stroke-linecap:round;stroke-linejoin:round;stroke-miterlimit:100;stroke-opacity:0.66666667;stroke-dasharray:none" /><path
   inkscape:connector-curvature="0"
   style="fill:none;stroke:#e83131;stroke-width:10.2480011;stroke-linecap:round;stroke-linejoin:round;stroke-miterlimit:100;stroke-opacity:0.66666667;stroke-dasharray:none"
   id="path17692"
   d="M 288.83306,6.7340254 C 132.99076,6.7340254 6.6548998,133.06989 6.6548998,288.91219" /><line
   stroke-miterlimit="500"
   x1="1417.5448"
   y1="6.7340403"
   x2="288.8331"
   y2="6.7340403"
   id="line17694"
   style="fill:none;stroke:#e83131;stroke-width:10.2480011;stroke-linecap:round;stroke-linejoin:round;stroke-miterlimit:100;stroke-opacity:0.66666667;stroke-dasharray:none" /><line
   stroke-miterlimit="500"
   x1="1699.7231"
   y1="1417.6238"
   x2="1699.7231"
   y2="288.9122"
   id="line17700"
   style="fill:none;stroke:#e83131;stroke-width:10.2480011;stroke-linecap:round;stroke-linejoin:round;stroke-miterlimit:100;stroke-opacity:0.66666667;stroke-dasharray:none" /><path
   inkscape:connector-curvature="0"
   style="fill:url(#linearGradient4044);fill-opacity:1.0;fill-rule:evenodd;display:inline"
   id="path17668"
   d="m 1699.7227,288.91219 c 0,-74.83772 -29.7294,-146.6104 -82.648,-199.529072 C 1564.156,36.464445 1492.3834,6.7350154 1417.5456,6.7350154 l -1128.71254,0 C 213.99435,6.7350154 142.22167,36.464445 89.303,89.383118 36.38532,142.30179 6.6548998,214.07447 6.6548998,288.91219 l 0,1128.71151 c 0,74.8388 29.7294302,146.6115 82.6481002,199.5291 52.91867,52.9188 124.69135,82.6482 199.53006,82.6482 l 1128.71164,0 c 74.8387,0 146.6104,-29.7294 199.529,-82.6482 52.9187,-52.9176 82.6481,-124.6913 82.6481,-199.5291 l 0,-1128.71151 9e-4,0 z" /><path
   inkscape:connector-curvature="0"
   style="fill:url(#linearGradient4041);fill-opacity:1;fill-rule:evenodd;display:inline"
   id="path17670"
   d="m 1699.7227,288.91219 c 0,-155.8423 -126.3358,-282.1771746 -282.178,-282.1771746 l -1128.71164,0 C 132.99076,6.7340254 6.6548998,133.06989 6.6548998,288.91219 l 0,846.53351 C 684.2707,1188.7794 1335.8204,863.00507 1699.7227,288.91219 z" /><path
   inkscape:connector-curvature="0"
   style="fill:#ffffff;fill-opacity:0.25842698;fill-rule:evenodd"
   id="path11342"
   d="m 1417.5447,1671.5836 c 140.9581,-10.4224 257.0159,-114.8742 282.178,-253.9599 0,155.8434 -126.3358,282.1782 -282.178,282.1782 l -1128.71164,0 C 132.99076,1699.8019 6.6548998,1573.4671 6.6548998,1417.6237 31.81616,1556.7094 147.87489,1661.1612 288.83306,1671.5836 l 1128.71164,0 z" /><path
   inkscape:connector-curvature="0"
   style="fill:none;stroke:#55baff;stroke-width:14.93190384000000037;stroke-linecap:round;stroke-linejoin:round;stroke-miterlimit:100;stroke-opacity:1;stroke-dasharray:none"
   id="path11336"
   d="m 1417.5447,1699.8019 c 155.8422,0 282.178,-126.3348 282.178,-282.1782" /><path
   inkscape:connector-curvature="0"
   style="fill:none;stroke:#55baff;stroke-width:14.93190384000000037;stroke-linecap:round;stroke-linejoin:round;stroke-miterlimit:100;stroke-opacity:1;stroke-dasharray:none"
   id="path11334"
   d="m 6.6548998,1417.6237 c 0,155.8434 126.3358602,282.1782 282.1781602,282.1782" /><line
   style="fill:none;stroke:#55baff;stroke-width:14.93190384000000037;stroke-linecap:round;stroke-linejoin:round;stroke-miterlimit:100;stroke-opacity:1;stroke-dasharray:none"
   id="line11326"
   y2="1699.802"
   x2="1417.5448"
   y1="1699.802"
   x1="288.8331"
   stroke-miterlimit="500" /><line
   style="fill:none;stroke:#55baff;stroke-width:14.93190384000000037;stroke-linecap:round;stroke-linejoin:round;stroke-miterlimit:100;stroke-opacity:1;stroke-dasharray:none"
   id="line11332"
   y2="1417.6238"
   x2="6.654902"
   y1="288.9122"
   x1="6.654902"
   stroke-miterlimit="500" /><path
   inkscape:connector-curvature="0"
   style="fill:none;stroke:#55baff;stroke-width:14.93190384000000037;stroke-linecap:round;stroke-linejoin:round;stroke-miterlimit:100;stroke-opacity:1;stroke-dasharray:none"
   id="path11340"
   d="M 288.83306,6.7340254 C 132.99076,6.7340254 6.6548998,133.06989 6.6548998,288.91219" /><line
   style="fill:none;stroke:#55baff;stroke-width:14.93190384000000037;stroke-linecap:round;stroke-linejoin:round;stroke-miterlimit:100;stroke-opacity:1;stroke-dasharray:none"
   id="line11330"
   y2="6.7340403"
   x2="288.8331"
   y1="6.7340403"
   x1="1417.5448"
   stroke-miterlimit="500" /><path
   inkscape:connector-curvature="0"
   style="fill:none;stroke:#55baff;stroke-width:14.93190384000000037;stroke-linecap:round;stroke-linejoin:round;stroke-miterlimit:100;stroke-opacity:1;stroke-dasharray:none"
   id="path11338"
   d="m 1699.7227,288.91219 c 0,-155.8423 -126.3358,-282.1771746 -282.178,-282.1771746" /><line
   style="fill:none;stroke:#55baff;stroke-width:14.93190384000000037;stroke-linecap:round;stroke-linejoin:round;stroke-miterlimit:100;stroke-opacity:1;stroke-dasharray:none"
   id="line11328"
   y2="288.9122"
   x2="1699.7231"
   y1="1417.6238"
   x1="1699.7231"
   stroke-miterlimit="500" /><path
   inkscape:connector-curvature="0"
   style="fill:#ffffff;fill-opacity:0.58823529;fill-rule:evenodd"
   id="path17676"
   d="m 1417.5447,1671.5836 c 140.9581,-10.4224 257.0159,-114.8742 282.178,-253.9599 0,155.8434 -126.3358,282.1782 -282.178,282.1782 l -1128.71164,0 C 132.99076,1699.8019 6.6548998,1573.4671 6.6548998,1417.6237 31.81616,1556.7094 147.87489,1661.1612 288.83306,1671.5836 l 1128.71164,0 z" /><path
   inkscape:connector-curvature="0"
   style="fill:none;stroke:#55baff;stroke-width:10.24800109999999975;stroke-linecap:round;stroke-linejoin:round;stroke-miterlimit:100;stroke-opacity:1;stroke-dasharray:none"
   id="path17696"
   d="m 1699.7227,288.91219 c 0,-155.8423 -126.3358,-282.1771746 -282.178,-282.1771746" /><path
   inkscape:connector-curvature="0"
   style="fill:#004eb4;fill-opacity:0.58823532;fill-rule:evenodd"
   id="path11324"
   d="M 6.6548998,1417.6237 C 30.0313,1417.6237 48.98187,1164.954 48.98187,853.2675 48.98187,541.58291 30.0313,288.91219 6.6548998,288.91219 l 0,1128.71151 0,0 z" /><path
   inkscape:connector-curvature="0"
   style="fill:url(#linearGradient4026);fill-opacity:1;fill-rule:evenodd"
   id="path11322"
   d="m 1699.7227,1417.6237 c -23.3763,0 -42.3279,-252.6697 -42.3279,-564.3562 0,-311.68459 18.9506,-564.35531 42.3279,-564.35531 l 0,1128.71151 z" /><path
   inkscape:connector-curvature="0"
   style="fill:#ffffff;fill-opacity:0.54901961;fill-rule:evenodd"
   id="path14085"
   d="M 1699.7227,288.91219 C 1652.7112,168.68347 1545.1606,82.642857 1417.5447,63.17066 l -1128.71164,0 C 161.21703,82.642857 53.66651,168.68248 6.6548998,288.91219 6.6548998,133.06989 132.99076,6.7350154 288.83306,6.7350154 l 1128.71164,0 c 155.8422,-9.9e-4 282.178,126.3348746 282.178,282.1771746 z" /><rect
   style="fill:#ffffff;fill-opacity:1;fill-rule:nonzero;stroke:#000000;stroke-width:0.7086615;stroke-linecap:round;stroke-linejoin:round;stroke-miterlimit:4;stroke-opacity:1;stroke-dasharray:none;stroke-dashoffset:0;marker:none;visibility:visible;display:inline;overflow:visible;enable-background:accumulate"
   id="rect2427"
   y="738.48834"
   x="254.22121"
   ry="99.200508"
   rx="111.04942"
   height="672.79132"
   width="895.20062" /><g
   id="g3245"
   transform="translate(-713.28267,-1331.8979)"><path
     inkscape:connector-curvature="0"
     style="fill:#ffffff;fill-opacity:1;fill-rule:evenodd;stroke:none"
     id="path2510"
     d="m 1560.5969,2144.5698 c 0,-80.6929 0,-173.4898 0,-254.1827 0,-47.0529 25.0488,-100.0914 48.4158,-133.1433 66.7974,-94.4826 145.2472,-121.0394 266.2866,-121.0394 0,0 0,145.2473 0,181.5591 -24.2079,0 -48.4158,0 -84.7276,0 -24.2079,0 -72.6236,24.2078 -72.6236,72.6236 0,72.6237 0,254.1827 0,254.1827 l -157.3512,0 z" /><path
     inkscape:connector-curvature="0"
     style="fill:#ffffff;fill-opacity:1;fill-rule:evenodd;stroke:none"
     id="path3338"
     d="m 2165.7938,2144.5698 c 0,-80.6929 0,-173.4898 0,-254.1827 0,-47.0529 -25.0488,-100.0914 -48.4158,-133.1433 -66.7974,-94.4826 -145.2472,-121.0394 -266.2866,-121.0394 0,0 0,145.2473 0,181.5591 24.2079,0 48.4158,0 84.7276,0 24.2079,0 72.6236,24.2078 72.6236,72.6236 0,72.6237 0,254.1827 0,254.1827 l 157.3512,0 z" /><path
     inkscape:connector-curvature="0"
     style="fill:#000000;fill-opacity:0.62745098;fill-rule:evenodd;display:inline"
     id="path2499"
     d="m 1617.8126,1744.9195 c 133.3307,-145.2472 369.0366,-145.4595 490.0759,-0.2123 -84.7275,-157.3511 -393.057,-157.1388 -490.0759,0.2123 z" /></g><path
   inkscape:connector-curvature="0"
   style="fill:#000000;fill-opacity:0.62745098;fill-rule:evenodd;display:inline"
   id="path2453"
   d="m 1150.1257,836.87975 c -18.1559,-72.6236 -60.5197,-96.8315 -145.2472,-96.8315 -0.071,-2.0163 0,0 0,-1.2104 6.0519,0 33.2858,0 39.3378,0 39.3378,0 102.8834,19.3663 105.9094,98.0419 z" /><path
   inkscape:connector-curvature="0"
   style="fill:#000000;fill-opacity:0.62745098;fill-rule:evenodd;display:inline"
   id="path3340"
   d="m 253.9501,836.8738 c 18.1559,-72.6236 60.5197,-96.8315 145.2472,-96.8315 0.071,-2.0163 0,0 0,-1.2104 -6.0519,0 -33.2858,0 -39.3378,0 -39.3378,0 -102.8834,19.3663 -105.9094,98.0419 z" /></svg>